# xmcd
#
# Track frame offsets:
#	150
#	12355
#	23205
#	40510
#	58150
#	72240
#	83882
#	94510
#	109417
#	125950
#	139747
#
# Disc length: 2101 seconds
#
# Revision: 1
# Processed by: cddbd v1.4PL0 Copyright (c) Steve Scherf et al.
# Submitted via: CDmax 2.0
#
DISCID=9608330b
DTITLE=Danni Leigh - 29 Nights
DYEAR=1998
DGENRE=Country
TTITLE0=If The Jukebox Took Teardrops
TTITLE1=Beatin' My Head Against The Wall
TTITLE2=29 Nights
TTITLE3=How Does It Feel To You
TTITLE4=Teardrops, Teardrops
TTITLE5=Ol' Lonesome
TTITLE6=Mixed Up Mess Of A Heart
TTITLE7=Touch Me
TTITLE8=I Feel A Heartache
TTITLE9=Chain Me
TTITLE10=Weren't You The One
EXTD=
EXTT0=
EXTT1=
EXTT2=
EXTT3=
EXTT4=
EXTT5=
EXTT6=
EXTT7=
EXTT8=
EXTT9=
EXTT10=
PLAYORDER=
